name rise44.9368peak50.754fall52.0217.mot
datacolumns 19
datarows 26
range 4.31831700000000 4.35998700000000
endheader
time	ground_force1_vx	ground_force1_vy	ground_force1_vz	ground_force1_px	ground_force1_py	ground_force1_pz	ground_force2_vx	ground_force2_vy	ground_force2_vz	ground_force2_px	ground_force2_py	ground_force2_pz	ground_torque1_x	ground_torque1_y	ground_torque1_z	ground_torque2_x	ground_torque2_y	ground_torque2_z	
4.31831700000000	-14.08854000000000	41.35142600000000	-9.96375300000000	0.30966600000000	0.00000000000000	0.07296500000000	-45.18713500000000	747.02306099999998	-54.10623800000000	0.16082700000000	0.00000000000000	-0.11484200000000	0.00000000000000	-6.66389500000000	0.00000000000000	0.00000000000000	-24.81432500000000	0.00000000000000	
4.31998400000000	-15.55524100000000	48.52438900000000	-11.20456900000000	0.31571400000000	0.00000000000000	0.07397500000000	-45.62148700000000	743.62353700000006	-53.56064900000000	0.15999100000000	0.00000000000000	-0.11479700000000	0.00000000000000	-7.58001200000000	0.00000000000000	0.00000000000000	-24.68587400000000	0.00000000000000	
4.32165800000000	-16.78711200000000	55.80614800000000	-12.33226900000000	0.32136900000000	0.00000000000000	0.07487300000000	-46.06688600000000	740.16547400000002	-52.99409500000000	0.15916500000000	0.00000000000000	-0.11474700000000	0.00000000000000	-8.43867900000000	0.00000000000000	0.00000000000000	-24.55823100000000	0.00000000000000	
4.32331800000000	-17.74753300000000	63.10561100000000	-13.32052400000000	0.32668500000000	0.00000000000000	0.07567600000000	-46.52316700000000	736.64692700000001	-52.40690300000000	0.15834900000000	0.00000000000000	-0.11469300000000	0.00000000000000	-9.22051300000000	0.00000000000000	0.00000000000000	-24.43148800000000	0.00000000000000	
4.32498700000000	-18.41481900000000	70.35402700000000	-14.15188400000000	0.33170400000000	0.00000000000000	0.07639900000000	-46.99011800000000	733.06583100000000	-51.79944000000000	0.15754400000000	0.00000000000000	-0.11463400000000	0.00000000000000	-9.91170600000000	0.00000000000000	0.00000000000000	-24.30572800000000	0.00000000000000	
4.32665100000000	-18.78203700000000	77.50716000000000	-14.81789300000000	0.33646200000000	0.00000000000000	0.07705400000000	-47.46748100000000	729.42001000000005	-51.17210200000000	0.15675100000000	0.00000000000000	-0.11457000000000	0.00000000000000	-10.50430200000000	0.00000000000000	0.00000000000000	-24.18102500000000	0.00000000000000	
4.32831600000000	-18.85564700000000	84.54507599999999	-15.31845200000000	0.34098700000000	0.00000000000000	0.07765000000000	-47.95495000000000	725.70718599999998	-50.52532400000000	0.15597000000000	0.00000000000000	-0.11450100000000	0.00000000000000	-10.99595700000000	0.00000000000000	0.00000000000000	-24.05744000000000	0.00000000000000	
4.32998900000000	-18.65328100000000	91.46996799999999	-15.66060200000000	0.34530100000000	0.00000000000000	0.07819600000000	-48.45216700000000	721.92498499999999	-49.85957100000000	0.15520100000000	0.00000000000000	-0.11442700000000	0.00000000000000	-11.38927400000000	0.00000000000000	0.00000000000000	-23.93502500000000	0.00000000000000	
4.33167800000000	-18.20097400000000	98.30252200000000	-15.85693700000000	0.34942600000000	0.00000000000000	0.07869800000000	-48.95871900000000	718.07094700000005	-49.17534200000000	0.15444600000000	0.00000000000000	-0.11434800000000	0.00000000000000	-11.69084600000000	0.00000000000000	0.00000000000000	-23.81381600000000	0.00000000000000	
4.33332000000000	-17.53019200000000	105.07739100000001	-15.92383200000000	0.35337600000000	0.00000000000000	0.07916100000000	-49.47413800000000	714.14253299999996	-48.47316700000000	0.15370400000000	0.00000000000000	-0.11426500000000	0.00000000000000	-11.91012800000000	0.00000000000000	0.00000000000000	-23.69383900000000	0.00000000000000	
4.33500000000000	-16.67491900000000	111.83830200000000	-15.87967500000000	0.35716700000000	0.00000000000000	0.07958900000000	-49.99789900000000	710.13713900000005	-47.75360600000000	0.15297700000000	0.00000000000000	-0.11417500000000	0.00000000000000	-12.05827300000000	0.00000000000000	0.00000000000000	-23.57510400000000	0.00000000000000	
4.33666600000000	-15.66904100000000	118.63325900000000	-15.74323900000000	0.36081000000000	0.00000000000000	0.07998800000000	-50.52941400000000	706.05209700000000	-47.01725300000000	0.15226500000000	0.00000000000000	-0.11408100000000	0.00000000000000	-12.14701300000000	0.00000000000000	0.00000000000000	-23.45760700000000	0.00000000000000	
4.33831900000000	-14.54418000000000	125.51020600000000	-15.53230500000000	0.36431600000000	0.00000000000000	0.08035900000000	-51.06803600000000	701.88469299999997	-46.26472500000000	0.15156800000000	0.00000000000000	-0.11398200000000	0.00000000000000	-12.18769600000000	0.00000000000000	0.00000000000000	-23.34132900000000	0.00000000000000	
4.33998500000000	-13.32806900000000	132.51341199999999	-15.26259300000000	0.36769200000000	0.00000000000000	0.08070600000000	-51.61305200000000	697.63217299999997	-45.49667100000000	0.15088600000000	0.00000000000000	-0.11387700000000	0.00000000000000	-12.19050300000000	0.00000000000000	0.00000000000000	-23.22623400000000	0.00000000000000	
4.34165400000000	-12.04350400000000	139.68073200000001	-14.94704100000000	0.37094800000000	0.00000000000000	0.08103200000000	-52.16368600000000	693.29175299999997	-44.71376700000000	0.15022100000000	0.00000000000000	-0.11376700000000	0.00000000000000	-12.16389500000000	0.00000000000000	0.00000000000000	-23.11227100000000	0.00000000000000	
4.34332400000000	-10.70784500000000	147.04179300000001	-14.59542100000000	0.37408900000000	0.00000000000000	0.08133800000000	-52.71909200000000	688.86063100000001	-43.91671100000000	0.14957200000000	0.00000000000000	-0.11365200000000	0.00000000000000	-12.11428000000000	0.00000000000000	0.00000000000000	-22.99937000000000	0.00000000000000	
4.34499100000000	-9.33301000000000	154.61707999999999	-14.21425500000000	0.37712100000000	0.00000000000000	0.08162700000000	-53.27836100000000	684.33599700000002	-43.10622900000000	0.14894100000000	0.00000000000000	-0.11353100000000	0.00000000000000	-12.04590000000000	0.00000000000000	0.00000000000000	-22.88744600000000	0.00000000000000	
4.34665500000000	-7.92587300000000	162.41782799999999	-13.80699600000000	0.38005000000000	0.00000000000000	0.08189900000000	-53.84051200000000	679.71504600000003	-42.28306800000000	0.14832600000000	0.00000000000000	-0.11340500000000	0.00000000000000	-11.96090000000000	0.00000000000000	0.00000000000000	-22.77639500000000	0.00000000000000	
4.34832400000000	-6.48896400000000	170.44657699999999	-13.37440000000000	0.38288000000000	0.00000000000000	0.08215700000000	-54.40450000000000	674.99498700000004	-41.44799700000000	0.14773000000000	0.00000000000000	-0.11327400000000	0.00000000000000	-11.85954100000000	0.00000000000000	0.00000000000000	-22.66609400000000	0.00000000000000	
4.34999500000000	-5.02135600000000	178.69823000000000	-12.91503600000000	0.38561500000000	0.00000000000000	0.08240100000000	-54.96920700000000	670.17306099999996	-40.60180500000000	0.14715200000000	0.00000000000000	-0.11313700000000	0.00000000000000	-11.74052600000000	0.00000000000000	0.00000000000000	-22.55640500000000	0.00000000000000	
4.35166300000000	-3.51964700000000	187.16143199999999	-12.42586200000000	0.38825800000000	0.00000000000000	0.08263300000000	-55.53345100000000	665.24654799999996	-39.74530000000000	0.14659200000000	0.00000000000000	-0.11299600000000	0.00000000000000	-11.60137900000000	0.00000000000000	0.00000000000000	-22.44716900000000	0.00000000000000	
4.35332100000000	-1.97894100000000	195.82012599999999	-11.90282300000000	0.39081300000000	0.00000000000000	0.08285300000000	-56.09598200000000	660.21278800000005	-38.87930700000000	0.14605100000000	0.00000000000000	-0.11284800000000	0.00000000000000	-11.43885000000000	0.00000000000000	0.00000000000000	-22.33821100000000	0.00000000000000	
4.35498700000000	-0.39376000000000	204.65512200000001	-11.34140600000000	0.39328300000000	0.00000000000000	0.08306300000000	-56.65548500000000	655.06918800000005	-38.00466600000000	0.14552900000000	0.00000000000000	-0.11269600000000	0.00000000000000	-11.24931200000000	0.00000000000000	0.00000000000000	-22.22933800000000	0.00000000000000	
4.35665800000000	1.24117800000000	213.64556300000001	-10.73714200000000	0.39567000000000	0.00000000000000	0.08326200000000	-57.21058000000000	649.81324400000005	-37.12223200000000	0.14502700000000	0.00000000000000	-0.11253800000000	0.00000000000000	-11.02911200000000	0.00000000000000	0.00000000000000	-22.12034000000000	0.00000000000000	
4.35832100000000	2.93033300000000	222.77021700000000	-10.08600400000000	0.39797600000000	0.00000000000000	0.08345200000000	-57.75982600000000	644.44255399999997	-36.23287100000000	0.14454500000000	0.00000000000000	-0.11237500000000	0.00000000000000	-10.77486900000000	0.00000000000000	0.00000000000000	-22.01098900000000	0.00000000000000	
4.35998700000000	4.67689600000000	232.00850500000001	-9.38470800000000	0.40020400000000	0.00000000000000	0.08363400000000	-58.30172400000000	638.95483100000001	-35.33745800000000	0.14408300000000	0.00000000000000	-0.11220700000000	0.00000000000000	-10.48370000000000	0.00000000000000	0.00000000000000	-21.90104000000000	0.00000000000000	
